<svg id="Capa_1" data-name="Capa 1" xmlns="http://www.w3.org/2000/svg" viewBox="0 0 80.95 61.05"><defs><style>.cls-1{fill:#47ae53;}.cls-2{fill:#fff;}</style></defs><path class="cls-1" d="M49.79,40.65,36.05,46.33l2.3,5.54,13.73-5.62a3.14,3.14,0,0,0,1-.65,3,3,0,0,0,.66-1,3,3,0,0,0,0-2.32,3.15,3.15,0,0,0-1.64-1.65A3.13,3.13,0,0,0,51,40.43,2.88,2.88,0,0,0,49.79,40.65ZM13.61,2.93a2.21,2.21,0,0,0-.18-.34l-.09-.2a4.15,4.15,0,0,0-.27-.32L13,1.94a3,3,0,0,0-1.53-.83,3,3,0,0,0-1.74.16L1.84,4.41a3,3,0,0,0,0,5.51A3.1,3.1,0,0,0,4.09,10L9.15,8,21.7,38.41a3.07,3.07,0,0,0,3.9,1.51,3.05,3.05,0,0,0,1.62-1.56,3,3,0,0,0,.09-2.23Z"/><path class="cls-2" d="M30.17,49.05a3,3,0,0,1,1.67.51,3,3,0,0,1,.46,4.61,3,3,0,0,1-3.29.65,3,3,0,0,1-1.87-2.77A3,3,0,0,1,28,49.93,3,3,0,0,1,30.17,49.05Zm0-6a9.08,9.08,0,0,0-8.38,5.56,8.9,8.9,0,0,0-.52,5.2,9,9,0,0,0,2.48,4.6,9.1,9.1,0,0,0,9.89,2,9,9,0,0,0-3.47-17.31Z"/><path class="cls-1" d="M50,40.55a3,3,0,0,0-1,.65,3.11,3.11,0,0,0-.67,1,2.9,2.9,0,0,0-.24,1.16,3.1,3.1,0,0,0,.22,1.16,3.25,3.25,0,0,0,.66,1,3.08,3.08,0,0,0,1,.66,3,3,0,0,0,1.17.24,3.12,3.12,0,0,0,1.17-.22L66,40.48l-2.3-5.54Z"/><path class="cls-2" d="M71.89,37.76a3.06,3.06,0,0,1-2.8-1.85,3.13,3.13,0,0,1-.17-1.74,3,3,0,0,1,.83-1.53,3,3,0,0,1,4.65.45,3,3,0,0,1-2.51,4.67Zm0,6a9.09,9.09,0,0,0,5-1.52A9,9,0,0,0,80.78,33a9,9,0,0,0-2.48-4.61,9.13,9.13,0,0,0-9.88-1.95,9,9,0,0,0,3.47,17.32Z"/><path class="cls-2" d="M41.33,0l1.89.66a4.54,4.54,0,0,1,3.39,4.58c0,2.78,0,5.56,0,8.34a11.17,11.17,0,0,1-8.11,11c-1,.29-.94.72-.75,1.47a8,8,0,0,0,15.8-1.9c.07-1.52,0-3,0-4.57a1.05,1.05,0,0,0-.66-1,5.51,5.51,0,0,1-2.53-6.49,5.63,5.63,0,0,1,10.84,0,5.5,5.5,0,0,1-2.5,6.4A1.25,1.25,0,0,0,58,19.77a38.85,38.85,0,0,1-.2,6.38A12.5,12.5,0,0,1,45.65,36.51a12.18,12.18,0,0,1-12.3-10,2.28,2.28,0,0,0-1.82-2.11,11.15,11.15,0,0,1-7.65-10.78c0-2.78,0-5.56,0-8.33A4.52,4.52,0,0,1,27.33.65L29.23,0h.91c.08.07.14.18.23.21a2.11,2.11,0,0,1,1.37,2.26,2,2,0,0,1-1.63,2,6.66,6.66,0,0,1-.85.31c-.74.11-.94.51-.93,1.24.05,2.44,0,4.87,0,7.3,0,4.22,2.86,7.26,6.81,7.27s7-3,7-7.21c0-2.4,0-4.79,0-7.18,0-.9-.26-1.3-1.1-1.5a3,3,0,0,1-2-1.17C38.3,2.27,38.85.85,40.42,0ZM55.81,16a2.2,2.2,0,0,0,2.32-2.26,2.33,2.33,0,0,0-4.66,0A2.18,2.18,0,0,0,55.81,16Z"/></svg>