<svg id="Capa_1" data-name="Capa 1" xmlns="http://www.w3.org/2000/svg" viewBox="0 0 60 60"><defs><style>.cls-1{fill:#fff;}.cls-2{fill:#47ae53;}</style></defs><path class="cls-1" d="M59.82,26.74a3.15,3.15,0,0,0-1-2A3.1,3.1,0,0,0,56.71,24a1.33,1.33,0,0,1-1.27-1,26.74,26.74,0,0,0-2.51-6,1.27,1.27,0,0,1-.17-.83,1.29,1.29,0,0,1,.38-.77,3.28,3.28,0,0,0,.92-2.24,3,3,0,0,0-.66-1.89A20.67,20.67,0,0,0,51.47,9.1L51,8.58a28.47,28.47,0,0,0-2.17-1.93A3.1,3.1,0,0,0,46.67,6a3.14,3.14,0,0,0-2,.92,1.29,1.29,0,0,1-.92.39A1.51,1.51,0,0,1,43,7.12a26.55,26.55,0,0,0-6-2.51,1.35,1.35,0,0,1-.76-.47A1.32,1.32,0,0,1,36,3.29a3.2,3.2,0,0,0-.78-2.09,3,3,0,0,0-2-1,29.61,29.61,0,0,0-6.52,0,3.15,3.15,0,0,0-2,1A3.1,3.1,0,0,0,24,3.29a1.33,1.33,0,0,1-1,1.27,26.74,26.74,0,0,0-6,2.51,1.31,1.31,0,0,1-1.6-.21,3.43,3.43,0,0,0-1.06-.66A3,3,0,0,0,13.12,6a3,3,0,0,0-1.9.66A20.67,20.67,0,0,0,9.05,8.59l-.52.52A18.6,18.6,0,0,0,6.6,11.22,3.09,3.09,0,0,0,6,13.33a3.15,3.15,0,0,0,.91,2,1.29,1.29,0,0,1,.39.92,1.39,1.39,0,0,1-.18.69,26.55,26.55,0,0,0-2.51,6,1.32,1.32,0,0,1-1.27,1,3.2,3.2,0,0,0-2.09.78,3,3,0,0,0-1,2,29.61,29.61,0,0,0,0,6.52,3.15,3.15,0,0,0,1,2A3.1,3.1,0,0,0,3.29,36a1.33,1.33,0,0,1,1.27,1,26.74,26.74,0,0,0,2.51,6,1.27,1.27,0,0,1,.17.83,1.29,1.29,0,0,1-.38.77,3.43,3.43,0,0,0-.66,1.06A3,3,0,0,0,6,46.88a3,3,0,0,0,.66,1.9A20.67,20.67,0,0,0,8.59,51l.52.52a28.47,28.47,0,0,0,2.17,1.93,3.09,3.09,0,0,0,2.11.65,3.15,3.15,0,0,0,2-.91,1.29,1.29,0,0,1,.92-.39,1.39,1.39,0,0,1,.69.18,26.55,26.55,0,0,0,6,2.51,1.26,1.26,0,0,1,.7.47,1.3,1.3,0,0,1,.28.8,3.2,3.2,0,0,0,.78,2.09,3,3,0,0,0,2,1,29.61,29.61,0,0,0,6.52,0,3.15,3.15,0,0,0,2-1A3.1,3.1,0,0,0,36,56.71a1.33,1.33,0,0,1,1-1.27,26.74,26.74,0,0,0,6-2.51,1.27,1.27,0,0,1,.83-.17,1.23,1.23,0,0,1,.77.38,3.28,3.28,0,0,0,2.24.92,3,3,0,0,0,1.89-.66,20.67,20.67,0,0,0,2.17-1.93l.52-.52a28.47,28.47,0,0,0,1.93-2.17A3.1,3.1,0,0,0,54,46.67a3.14,3.14,0,0,0-.92-2,1.29,1.29,0,0,1-.39-.92,1.51,1.51,0,0,1,.18-.69,26.55,26.55,0,0,0,2.51-6,1.35,1.35,0,0,1,.47-.76,1.3,1.3,0,0,1,.85-.28,3.2,3.2,0,0,0,2.09-.78,3,3,0,0,0,1-2A29.61,29.61,0,0,0,59.82,26.74ZM30,51.6a21.61,21.61,0,1,1,15.27-6.33A21.63,21.63,0,0,1,30,51.6Z"/><path class="cls-2" d="M30,20.4a9.6,9.6,0,0,1,6.79,16.39,9.67,9.67,0,0,1-4.92,2.63A9.6,9.6,0,1,1,30,20.4Zm0-6a15.62,15.62,0,1,0,6,1.19A15.56,15.56,0,0,0,30,14.4Z"/><path class="cls-1" d="M58.91,38a3.13,3.13,0,0,0-.23-2.21A3.07,3.07,0,0,0,57,34.33a1.34,1.34,0,0,1-.64-.56,1.31,1.31,0,0,1-.17-.84,26.67,26.67,0,0,0-.1-6.5,1.32,1.32,0,0,1,.14-.85A1.36,1.36,0,0,1,56.9,25a3.25,3.25,0,0,0,1.69-1.73,3.08,3.08,0,0,0,.09-2,22.4,22.4,0,0,0-1-2.73l-.29-.67c-.4-.89-.83-1.75-1.3-2.6a3.15,3.15,0,0,0-1.72-1.39,3.09,3.09,0,0,0-2.22.11,1.33,1.33,0,0,1-1,0,1.36,1.36,0,0,1-.56-.42A26.7,26.7,0,0,0,46,9a1.37,1.37,0,0,1-.53-.72,1.33,1.33,0,0,1,0-.9,3.17,3.17,0,0,0,.05-2.23,3.07,3.07,0,0,0-1.44-1.67A30,30,0,0,0,38,1.09a3.13,3.13,0,0,0-2.21.23A3.07,3.07,0,0,0,34.33,3a1.34,1.34,0,0,1-.56.64,1.31,1.31,0,0,1-.84.17,26.67,26.67,0,0,0-6.5.1,1.32,1.32,0,0,1-.85-.14A1.36,1.36,0,0,1,25,3.1a3.3,3.3,0,0,0-.73-1,3.15,3.15,0,0,0-1.07-.64,3.12,3.12,0,0,0-2-.09,22.54,22.54,0,0,0-2.74,1l-.67.29a19,19,0,0,0-2.57,1.25,3,3,0,0,0-1.39,1.72,3.12,3.12,0,0,0,.1,2.21,1.29,1.29,0,0,1,0,1,1.31,1.31,0,0,1-.42.57A26.3,26.3,0,0,0,9,14a1.34,1.34,0,0,1-1.57.5,3.17,3.17,0,0,0-2.23,0,3.07,3.07,0,0,0-1.67,1.44A30,30,0,0,0,1.09,22a3.13,3.13,0,0,0,.23,2.21A3.07,3.07,0,0,0,3,25.67a1.34,1.34,0,0,1,.64.56,1.31,1.31,0,0,1,.17.84,26.67,26.67,0,0,0,.1,6.5,1.32,1.32,0,0,1-.14.85A1.36,1.36,0,0,1,3.1,35a3.3,3.3,0,0,0-1,.73,3.15,3.15,0,0,0-.64,1.07,3.12,3.12,0,0,0-.09,2,22.54,22.54,0,0,0,1,2.74l.29.67c.39.89.83,1.75,1.3,2.6a3.13,3.13,0,0,0,3.93,1.28,1.29,1.29,0,0,1,1,0,1.33,1.33,0,0,1,.57.42A26.7,26.7,0,0,0,14.09,51a1.33,1.33,0,0,1,.48.7,1.3,1.3,0,0,1,0,.85,3.17,3.17,0,0,0,0,2.23,3.07,3.07,0,0,0,1.44,1.67A30,30,0,0,0,22,58.91a3.13,3.13,0,0,0,2.21-.23A3.07,3.07,0,0,0,25.67,57a1.34,1.34,0,0,1,.56-.64,1.31,1.31,0,0,1,.84-.17,26.67,26.67,0,0,0,6.5-.1,1.32,1.32,0,0,1,.85.14,1.36,1.36,0,0,1,.57.64,3.25,3.25,0,0,0,1.73,1.69,3.08,3.08,0,0,0,2,.09,22.4,22.4,0,0,0,2.73-1l.67-.29c.89-.4,1.75-.83,2.6-1.3a3.15,3.15,0,0,0,1.39-1.72A3.09,3.09,0,0,0,46,52.16a1.33,1.33,0,0,1,0-1,1.36,1.36,0,0,1,.42-.56A26.7,26.7,0,0,0,51,46a1.37,1.37,0,0,1,.72-.53,1.33,1.33,0,0,1,.9,0,3.17,3.17,0,0,0,2.23.05,3.07,3.07,0,0,0,1.67-1.44A30,30,0,0,0,58.91,38ZM22,50.06a21.58,21.58,0,1,1,16.53-.21A21.52,21.52,0,0,1,22,50.06Z"/><path class="cls-2" d="M30,23.86a6.18,6.18,0,0,1,6.06,7.39,6,6,0,0,1-1.69,3.16A6.18,6.18,0,1,1,30,23.86ZM30,20a10,10,0,0,0-2,19.9,10,10,0,0,0,10.31-4.28,10,10,0,0,0,.93-9.42A10,10,0,0,0,30,20Z"/></svg>