<svg id="Capa_1" data-name="Capa 1" xmlns="http://www.w3.org/2000/svg" viewBox="0 0 61.1 61.11"><defs><style>.cls-1{fill:#47ae53;}.cls-2{fill:#fff;}</style></defs><path class="cls-1" d="M16.37,52.92a8.14,8.14,0,0,1-7.94,8.19A8.1,8.1,0,0,1,0,53a8.19,8.19,0,1,1,16.37-.06ZM3.66,53a4.49,4.49,0,0,0,4.59,4.51A4.54,4.54,0,1,0,3.66,53Z"/><path class="cls-1" d="M51.56,12.87a16.88,16.88,0,0,0,2.11-.26,4.5,4.5,0,0,0-.06-8.89,4.36,4.36,0,0,0-5.07,3.53,12.79,12.79,0,0,0-.23,2c0,.1,0,.23-.07.27s-.17-.08-.24-.15L45.35,6.69a.87.87,0,0,1-.24-1A8,8,0,0,1,51.92.09a8.13,8.13,0,0,1,9,6.43,8.3,8.3,0,0,1-5,9.31A1.49,1.49,0,0,1,54,15.39c-.65-.73-1.41-1.35-2.11-2-.13-.13-.28-.25-.42-.37Z"/><path class="cls-2" d="M16.78,36.42a1,1,0,0,1,.6.27c2.21,2.34,4.51,4.59,6.79,6.85a.86.86,0,0,1,.14.13.81.81,0,0,1-.1,1.4l-2.9,2.1c-1.42,1-2.85,2-4.26,3.1-.29.21-.41.18-.54-.15s-.3-.59-.44-.89a9.27,9.27,0,0,0-4.64-4.43c-.8-.39-.8-.41-.29-1.12L16,37A1,1,0,0,1,16.78,36.42Z"/><path class="cls-2" d="M53.92,20.39a1.23,1.23,0,0,1-.88-.34l-.85-.82-11-11a3.47,3.47,0,0,1-.41-.45.9.9,0,0,1,.08-1.22c.32-.31.61-.64.92-1a1.08,1.08,0,0,1,1.75,0c2.92,3.14,6,6.08,9.05,9.13a43.94,43.94,0,0,0,3.68,3.54c.34.28.35.31,0,.53A8.09,8.09,0,0,0,54.74,20,1.25,1.25,0,0,1,53.92,20.39Z"/><path class="cls-1" d="M18,30.53a1.85,1.85,0,0,1,1.07.33L32,38.29c.29.17.6.34.88.53a1.56,1.56,0,0,1,.51,2.08,1.54,1.54,0,0,1-2.13.54c-1-.56-2-1.14-3-1.71L17.64,33.58a4.18,4.18,0,0,1-.54-.35,1.38,1.38,0,0,1-.49-1.7A1.41,1.41,0,0,1,18,30.53Z"/><path class="cls-1" d="M22.39,26.1a1.77,1.77,0,0,1,1.06.32c2.47,1.45,4.95,2.87,7.42,4.3C32.92,31.91,35,33.09,37,34.25a1.62,1.62,0,0,1,1,1.57,1.49,1.49,0,0,1-2.1,1.3,6.89,6.89,0,0,1-1-.55L22,29.14a1.73,1.73,0,0,1-1.05-1.55A1.49,1.49,0,0,1,22.39,26.1Z"/><path class="cls-1" d="M49.7,24a1.91,1.91,0,0,1-1.05-.31L36.79,16.85c-.67-.39-1.35-.77-2-1.18A1.51,1.51,0,0,1,34.17,14a1.55,1.55,0,0,1,1.35-1.12,1.91,1.91,0,0,1,1.09.3L48.37,20c.72.42,1.46.82,2.16,1.28a1.42,1.42,0,0,1,.4,2.07A1.33,1.33,0,0,1,49.7,24Z"/><path class="cls-1" d="M31.05,17.32a2,2,0,0,1,1.28.34l12.48,7.2a10,10,0,0,1,1.37.83,1.47,1.47,0,0,1,.51,1.8,1.51,1.51,0,0,1-2.2.72c-.55-.27-1.07-.59-1.6-.9l-12-6.94a1.86,1.86,0,0,1-1.1-1.28A1.43,1.43,0,0,1,31.05,17.32Z"/><path class="cls-1" d="M40.78,32.84a1.67,1.67,0,0,1-.82-.28L26.35,24.72a3.39,3.39,0,0,1-.53-.38,1.46,1.46,0,0,1-.29-1.93,1.49,1.49,0,0,1,1.83-.6,12.5,12.5,0,0,1,1.94,1.05q5.93,3.41,11.83,6.83a3.27,3.27,0,0,1,.89.63,1.36,1.36,0,0,1,.26,1.56A1.51,1.51,0,0,1,40.78,32.84Z"/><path class="cls-2" d="M48.93,17.06a1.66,1.66,0,0,1-2.2,1.32c-.63-.33-1.24-.7-1.86-1.05l-3.69-2.14c-.28-.15-.29-.27-.06-.49.75-.72,1.48-1.46,2.23-2.19a.85.85,0,0,1,1.36,0l3.89,3.88A.89.89,0,0,1,48.93,17.06Z"/><path class="cls-2" d="M18.92,37.25a1.85,1.85,0,0,1,1.4-1.36,1.31,1.31,0,0,1,.61.21c1.83,1.06,3.67,2.13,5.51,3.18.28.16.3.27.07.5-.76.76-1.52,1.54-2.25,2.33a.37.37,0,0,1-.6,0c-.31-.26-.61-.5-.89-.78-1.21-1.2-2.37-2.45-3.62-3.6A.68.68,0,0,1,18.92,37.25Z"/><path class="cls-2" d="M29.67,36.2a1.46,1.46,0,0,1-.73-.27c-1.72-1-3.43-2-5.15-3-.29-.17-.31-.31-.16-.6a1.21,1.21,0,0,1,1.92-.55c1.73,1,3.44,2,5.17,3,.25.14.29.26.17.51A1.3,1.3,0,0,1,29.67,36.2Z"/><path class="cls-2" d="M35.22,30.81a1.08,1.08,0,0,1-1.35,1,3.61,3.61,0,0,1-.44-.22l-4.92-2.83a.69.69,0,0,1-.32-1c.15-.27.35-.5.52-.75s.3-.07.43,0c1.22.7,2.44,1.42,3.67,2.11a20,20,0,0,0,2,1.13A.63.63,0,0,1,35.22,30.81Z"/><path class="cls-2" d="M38,18.32a1.4,1.4,0,0,1,.71.24l5.21,3c.26.15.29.28.16.54a1.19,1.19,0,0,1-1.92.6c-1.68-1-3.35-2-5-2.92-.37-.2-.4-.38-.21-.73A1.17,1.17,0,0,1,38,18.32Z"/><path class="cls-2" d="M33.59,22.74a1.28,1.28,0,0,1,.76.25l4.31,2.52c.18.1.37.17.55.26a.68.68,0,0,1,.37.86,1,1,0,0,1-1.58.63c-1.81-1-3.61-2.1-5.42-3.13-.29-.16-.29-.3-.13-.56C32.71,23.13,33,22.72,33.59,22.74Z"/></svg>