<svg id="Capa_1" data-name="Capa 1" xmlns="http://www.w3.org/2000/svg" viewBox="0 0 181.89 147"><defs><style>.cls-1{fill:#040404;}.cls-2{fill:#a5a5a5;}.cls-3{fill:#fff;}.cls-4{fill:#848484;}</style></defs><path class="cls-1" d="M107.2,53.59c4-.55,8-1.08,12-1.67,8.67-1.3,17.32-2.78,26.06-3.53a53.25,53.25,0,0,1,13.23.14,15,15,0,0,1,4.32,1.35,6.27,6.27,0,0,1,3.69,6.54,58.39,58.39,0,0,1-4.66,19.85c-4.93,11-13.27,18.27-24.46,22.45a69.35,69.35,0,0,1-20.41,4c-.51,0-.68-.08-.56-.65a12.39,12.39,0,0,0,.28-3.55c-9,12.4-20.54,17.13-35.48,12.12,5-1.71,7.87-5.09,8.51-10.31a2.13,2.13,0,0,1-.7-1A39.15,39.15,0,0,1,87.76,89,43.78,43.78,0,0,1,91,73.09,46.65,46.65,0,0,1,101.82,57.2c.84-.81,1.74-1.54,2.6-2.32A6.18,6.18,0,0,1,107.2,53.59Z"/><path class="cls-1" d="M36.65,57.22a33.8,33.8,0,0,1,2-13.88,7.26,7.26,0,0,0-4-9.33,20.16,20.16,0,0,0-3-1C25,31.13,20,27.41,17.35,21c-2.15-5.28-1.43-10.5.73-15.61a28.69,28.69,0,0,1,3-5.35c.16,1,.23,1.84.44,2.66a13,13,0,0,0,8.91,9.67c8,2.74,13.38,8,15,16.66,0,.12.09.23.18.48.42-1,.73-1.95,1.17-2.81A21.09,21.09,0,0,1,62.79,14.92,13.41,13.41,0,0,0,73.06,4.81c.06-.29.13-.57.24-1a25.4,25.4,0,0,1,2.36,5.36c2.22,7.17,1.46,13.84-3.8,19.49a21,21,0,0,1-16.62,6.9,11.27,11.27,0,0,0-4.85.65c-4.57,1.91-6.12,7-3.44,11.36.12.68-.42.78-.86,1a17.13,17.13,0,0,0-4.35,2.45A13,13,0,0,0,38,55.78a2.72,2.72,0,0,0-.6,1A.5.5,0,0,1,36.65,57.22Z"/><path class="cls-1" d="M77.33,96.59a90.3,90.3,0,0,1-15.51-7c-.94-.8-.74-1.94-.85-3a27.49,27.49,0,0,1,0-6.15,19.84,19.84,0,0,0,.38-2.77A32.21,32.21,0,0,1,68.74,62a49.51,49.51,0,0,1,5.2-5,5,5,0,0,1,4.37-1.25c3.77.13,7.53-.07,11.3-.27l1.06-.06c.34.55-.1.85-.4,1.15a56.19,56.19,0,0,0-6.07,7.28,40.48,40.48,0,0,0-7,18.18,20,20,0,0,0-.18,2.9,44.48,44.48,0,0,0,.62,10.37C77.72,95.7,77.94,96.25,77.33,96.59Z"/><path class="cls-2" d="M76.53,84.55A39.85,39.85,0,0,1,83.39,64.1a51.32,51.32,0,0,1,6.24-7.63c.36-.36.69-.76,1-1.14,2.17-.2,4.34-.39,6.51-.62,2.58-.27,5.16-.58,7.74-.87l2.28-.25a9,9,0,0,0-2.9,2A44.8,44.8,0,0,0,89,81.36a62.67,62.67,0,0,0-.86,7.49,1.35,1.35,0,0,1-1.32.4,56.31,56.31,0,0,1-9.11-1.64c-1.26-.33-1.3-.39-1.29-1.72A3.77,3.77,0,0,1,76.53,84.55Z"/><path class="cls-2" d="M78.31,55.66c-1.8-.3-3,.78-4.26,1.8-6,4.92-10.23,11-11.93,18.67-.3,1.38-.47,2.79-.71,4.18-.58.54-1,0-1.46-.24A58,58,0,0,1,53,75.16a19.42,19.42,0,0,1-3.48-3.3,2,2,0,0,1,.09-1.69A25.36,25.36,0,0,1,61.28,55.52a9.88,9.88,0,0,1,2.84-1.16c2.32.3,4.64.66,7,.87,2,.19,4.11.21,6.17.3A2.69,2.69,0,0,1,78.31,55.66Z"/><path class="cls-1" d="M64.12,54.36c-.31.57-.94.66-1.43.93A24.83,24.83,0,0,0,50,70.75a2.81,2.81,0,0,0-.18,1A2.76,2.76,0,0,1,50,73.07a52.67,52.67,0,0,0-.66,6.13c0,.38,0,.79-.45,1a40.63,40.63,0,0,1-8.38-10.69c-.8-2.55.09-4.9.82-7.27.66-1.14,1.09-2.39,1.82-3.5a18,18,0,0,1,8.86-7,3.58,3.58,0,0,1,1.92-.11A50.27,50.27,0,0,0,64.12,54.36Z"/><path class="cls-3" d="M104,138c-.84,2.63-1.69,5.19-2.47,7.77-.22.75-.52,1.15-1.38,1a11.47,11.47,0,0,0-2,0,.87.87,0,0,1-1-.72q-2-6.3-4-12.59c-.27-.81,0-.9.69-.9,2.35,0,2.34,0,3,2.19.79,2.51,1.59,5,2.58,7.53.43-1.33.86-2.66,1.28-4,.53-1.69,1.07-3.37,1.58-5.07a.79.79,0,0,1,.87-.66c2.62-.06,2.62-.08,3.42,2.45s1.56,4.87,2.43,7.56l2-6.19c.34-1.07.69-2.14,1-3.22a.7.7,0,0,1,.82-.59c.84,0,2-.28,2.42.15s-.3,1.5-.54,2.28c-1.14,3.63-2.33,7.23-3.45,10.86-.2.65-.43,1-1.17.91-1-.08-2.12.27-2.84-.16s-.71-1.71-1-2.62c-.67-1.95-1.29-3.91-1.92-5.87A2.15,2.15,0,0,0,104,138Z"/><path class="cls-4" d="M76.53,84.55c.11,2.29.11,2.31,2.41,2.86a53.35,53.35,0,0,0,9.24,1.44,50.47,50.47,0,0,0,1.51,11.47,54.91,54.91,0,0,1-12.36-3.73,75.51,75.51,0,0,1-1-9.85A5.79,5.79,0,0,1,76.53,84.55Z"/><path class="cls-4" d="M48.84,80.18a38.33,38.33,0,0,1,.76-7.85,3.46,3.46,0,0,1,.19-.54,72.46,72.46,0,0,0,7.93,6.26,24.47,24.47,0,0,0,3.69,2.26,39.31,39.31,0,0,0,.41,9.32,43.76,43.76,0,0,1-7.52-4.72A33.65,33.65,0,0,1,48.84,80.18Z"/><path class="cls-3" d="M133.32,139.73c0,2.06,0,4.13,0,6.2,0,.75-.23.9-.93.89-2.34,0-2.34,0-2.34-2.37,0-.87,0-1.74,0-2.62,0-.45-.15-.62-.62-.62-1.67,0-3.35,0-5,0-.49,0-.6.21-.59.64,0,1.42,0,2.84,0,4.26,0,.55-.16.7-.71.71-2.51.06-2.51.08-2.51-2.4,0-3.62,0-7.23,0-10.85,0-.76.22-1,1-1,2.25,0,2.25,0,2.25,2.27,0,.93,0,1.87,0,2.8,0,.49.12.7.64.69,1.65,0,3.29,0,4.94,0,.51,0,.67-.19.66-.68,0-1.45,0-2.9,0-4.36,0-.55.18-.7.72-.72,2.54-.08,2.54-.1,2.54,2.47Z"/><path class="cls-2" d="M53.88,51.62A17.57,17.57,0,0,0,41.79,62.27c-.38.33-.66.09-.89-.2A22.77,22.77,0,0,1,37.62,57a1.8,1.8,0,0,1,0-1.44A14.41,14.41,0,0,1,46.11,48c.29-.11.63-.14.84-.42,1.58,1.88,3.79,2.74,6,3.64C53.24,51.31,53.56,51.47,53.88,51.62Z"/><path class="cls-3" d="M49.22,142.81v-4.13c0-1.65.07-3.3,0-4.94-.06-1,.28-1.15,1.17-1.15s1.12.29,1.11,1.15q-.06,6,0,12.1c0,.73-.15,1-.94,1a2.2,2.2,0,0,1-2.07-1c-2.13-3-4.34-5.85-6.53-8.77-.15-.19-.21-.48-.62-.51v6.17c0,1,0,1.94,0,2.91,0,1.37.19,1.13-1.26,1.21-.8.05-1-.24-.95-1,.06-1.23,0-2.45,0-3.68,0-2.87,0-5.75,0-8.62,0-.68.11-.92.88-1a2.3,2.3,0,0,1,2.22,1.1c2.23,3.09,4.53,6.12,6.8,9.17Z"/><path class="cls-3" d="M173.17,139.7c0-2.1,0-4.2,0-6.3,0-.56.14-.8.75-.79,2.39,0,4.78,0,7.17,0,.63,0,.73.23.73.79,0,2.08,0,2.08-2.05,2.08-.94,0-1.87,0-2.81,0-.39,0-.62.11-.58.54a.67.67,0,0,1,0,.2c-.06,1.95-.06,1.95,1.89,1.95h.19c2.35,0,2.34,0,2.2,2.32,0,.47-.18.62-.63.61-1,0-2,0-3,0-.5,0-.64.18-.66.68-.08,2.13-.1,2.13,2,2.13.93,0,1.87,0,2.8,0,.75,0,.75.44.63.85-.21.69.68,1.93-.57,2-2.47.18-5,0-7.45.07-.59,0-.6-.31-.6-.73Q173.18,142.9,173.17,139.7Z"/><path class="cls-3" d="M11.81,139.73c0,2.07,0,4.13,0,6.2,0,.63-.09.93-.82.89-1.67-.08-1.4.21-1.43-1.45,0-1.29,0-2.58,0-3.87,0-.57-.15-.81-.76-.8-1.94,0-3.87,0-5.81,0-.65,0-.74.27-.73.81,0,1.49,0,3,0,4.46,0,.69-.21.93-.88.84a3.31,3.31,0,0,0-.77,0c-.51.06-.66-.16-.66-.66,0-4.3,0-8.59,0-12.89,0-.43.12-.61.59-.65,1.7-.12,1.7-.14,1.7,1.57,0,1.26,0,2.52,0,3.78,0,.55.15.73.71.72,1.94,0,3.87-.05,5.81,0,.7,0,.79-.28.78-.85,0-1.46,0-2.91,0-4.36,0-.7.22-.88.88-.86,1.68.06,1.35-.15,1.37,1.4C11.83,135.92,11.81,137.83,11.81,139.73Z"/><path class="cls-3" d="M57.64,139.68c0-2.1,0-4.2,0-6.3,0-.59.18-.78.78-.77,2.22,0,4.45,0,6.68,0,.89,0,.77.5.78,1.05s.08,1-.75,1c-1.51-.06-3,0-4.55,0-.56,0-.73.17-.7.72a21.71,21.71,0,0,1,0,2.42c0,.58.13.79.75.77,1.09-.05,2.19,0,3.29,0,.76,0,.67.45.61.87s.41,1.2-.6,1.19-2.2,0-3.3,0c-.6,0-.78.19-.75.78,0,.9,0,1.8,0,2.71,0,.58.16.79.76.77,1.48,0,3,0,4.45,0,1,0,.76.6.79,1.15s0,1-.78.94c-2.22-.06-4.45-.05-6.68,0-.7,0-.78-.28-.78-.85C57.65,143.87,57.64,141.77,57.64,139.68Z"/><path class="cls-3" d="M158.37,139.72c0-2.1,0-4.2,0-6.29,0-.64.19-.82.82-.82,2.44,0,2.44-.05,2.44,2.37,0,2.71,0,5.42,0,8.13,0,.65.19.82.82.8,1.48,0,3,0,4.45,0,.54,0,.78.08.79.72,0,2.2.05,2.2-2.12,2.2s-4.26,0-6.38,0c-.64,0-.82-.19-.81-.82C158.39,143.91,158.37,141.81,158.37,139.72Z"/><path class="cls-3" d="M71.27,132.63c.8,0,1.47,0,2.13,0,.47,0,.58.36.76.64l3.53,5.49L80,135.12a6.66,6.66,0,0,0,.61-1c.65-1.62,1.9-1.75,3.46-1.4-1,1.6-1.91,3.25-3,4.7a9.68,9.68,0,0,0-2.21,7.61,1.38,1.38,0,0,1,0,.29c0,1.52-.32,1.75-1.88,1.47-.43-.07-.41-.32-.41-.61a22.71,22.71,0,0,1,0-2.61,6.6,6.6,0,0,0-1.42-4.84c-1.26-1.75-2.35-3.62-3.51-5.44C71.54,133.13,71.45,132.94,71.27,132.63Z"/><path class="cls-4" d="M37.59,55.51a17.9,17.9,0,0,0,2.95,5.34,4.06,4.06,0,0,0,1.25,1.42,21.46,21.46,0,0,0-1.33,7.22,28.79,28.79,0,0,1-3.81-12.27C37.18,56.77,37.19,56,37.59,55.51Z"/><path class="cls-3" d="M147.51,58.8a3.08,3.08,0,0,1-3.09,3.05,3.12,3.12,0,0,1-3-3.15,3.06,3.06,0,0,1,3.12-3A3,3,0,0,1,147.51,58.8Z"/><path class="cls-3" d="M152.49,145.71c-1.29-3.47-2.58-6.94-3.91-10.39-.35-.89-.38-2.15-1.15-2.56s-1.89-.08-2.86-.15c-.57,0-.77.23-.95.71-1.57,4.22-3.16,8.44-4.74,12.66-.09.25-.29.49-.14.83.84,0,1.68,0,2.52,0,.51,0,.71-.19.89-.65.89-2.25.91-2.24,3.37-2.24h.38a6.24,6.24,0,0,1,2.47.14c.64.34.67,1.4,1,2.14.15.35.26.62.73.6.89,0,1.79,0,2.68,0A2.11,2.11,0,0,0,152.49,145.71Zm-5.57-4.64h-.1c-2.77.37-2.86.26-1.9-2.29.23-.63.47-1.26.81-2.15.56,1.48,1,2.7,1.5,3.92C147.34,140.86,147.29,141.06,146.92,141.07Z"/><path class="cls-3" d="M25.29,132.37A7.32,7.32,0,1,0,25.4,147a7.32,7.32,0,1,0-.11-14.63ZM25.22,145A5.27,5.27,0,0,1,20,139.69a5.38,5.38,0,0,1,5.42-5.29,5.33,5.33,0,0,1,5.2,5.39A5.24,5.24,0,0,1,25.22,145Z"/></svg>