<svg id="Capa_1" data-name="Capa 1" xmlns="http://www.w3.org/2000/svg" viewBox="0 0 231.04 147"><defs><style>.cls-1{fill:#373737;}.cls-2{fill:#fff;}</style></defs><path class="cls-1" d="M90.63,108.36c-3.09,0-6.18,0-9.27,0-.5,0-.62-.1-.5-.62q2.2-8.86,4.37-17.73,2.44-9.85,4.89-19.7c.83-3.31,1.57-6.64,2.59-9.91.11-.34.37-.83-.07-1.06s-.66.29-.9.57A137.32,137.32,0,0,1,80.39,72.2c-1.15,1.07-2.42,2-3.61,3a6.94,6.94,0,0,0-2.3,6,60.43,60.43,0,0,0,.86,7.23c.42,2.58,1.06,5.12,1.38,7.72a11,11,0,0,1-.5,5,23.8,23.8,0,0,1-2.74,5.65,4.15,4.15,0,0,1-1.55,1.48,1.62,1.62,0,0,1-2.13-.53,3.88,3.88,0,0,1-.62-1.6,7.6,7.6,0,0,1,.52-5.21,13.92,13.92,0,0,0,1.09-9.56c-.72-3.74-1.85-7.38-2.71-11.08a5.91,5.91,0,0,1,2.2-6.53,45.7,45.7,0,0,0,3.62-2.88,18.53,18.53,0,0,0,5.76-10.8,27.94,27.94,0,0,0-1.72-15.15,8.45,8.45,0,0,0-1.82-2.76,4.34,4.34,0,0,0-5.6-.26,22.84,22.84,0,0,0-6,7.78A116.21,116.21,0,0,0,59,63.25a60.51,60.51,0,0,1-8.1,15.89,24.44,24.44,0,0,1-7.64,7c-5,2.8-9.88,2.34-14.45-1.08a25.16,25.16,0,0,1-7-8.93c-.43-.82-.84-1.65-1.24-2.48a3.29,3.29,0,0,1-.21-2.52c.23-.69.68-.83,1.2-.32a10.15,10.15,0,0,1,1.64,2.67A22.2,22.2,0,0,0,28,79.86a10.71,10.71,0,0,0,12.86,1,19,19,0,0,0,6.94-7.62A45.14,45.14,0,0,0,52,61.51c.77-3.37,1.09-6.82,1.94-10.18,3.6-14.25,11.63-25,24.86-31.74a38.76,38.76,0,0,1,10.9-3.83,42.73,42.73,0,0,1,9.59-.5c3.68.17,7.22,1.16,10.84,1.7a23.73,23.73,0,0,0,5.58.46,5.49,5.49,0,0,0,3.21-1.28A13.41,13.41,0,0,0,123,10.05a4,4,0,0,0,.17-.78c.16-1.43-.41-2.08-1.84-2a5.93,5.93,0,0,1-5.45-2.79,1.23,1.23,0,0,1,.53-2.06c.74-.37,1.5-.68,2.25-1a4.47,4.47,0,0,0,1.38-.91,1.77,1.77,0,0,1,1.13-.42,8.94,8.94,0,0,1,2.53,0,3.4,3.4,0,0,1,1.64.66,32,32,0,0,1,3.2,2.61,2.18,2.18,0,0,0,1.72.71,5.8,5.8,0,0,1,5.08,2.53,52.85,52.85,0,0,1,3.46,4.58,2.31,2.31,0,0,0,2.43,1.3.92.92,0,0,1,1.15.93c.2,2.43-.46,4.07-2.87,4.54a52.6,52.6,0,0,1-5.61.32,14,14,0,0,0-2.8.41.81.81,0,0,0-.64.85,13.43,13.43,0,0,0,.19,1.91c.61,5-1.28,9-5.36,11.89a29.41,29.41,0,0,1-2.64,1.6,5.93,5.93,0,0,0-3,3.32,6.65,6.65,0,0,0-.2,2.51c.17,2.17.43,4.34.56,6.52a21.69,21.69,0,0,1-.16,5.91,2.38,2.38,0,0,1-1.19,1.69,9.18,9.18,0,0,1-4.17,1.2c-.53,0-1.07,0-1.6,0a1.27,1.27,0,0,1-1.47-1.1.27.27,0,0,1,0-.12,2.23,2.23,0,0,0-1.72-2.28,1.66,1.66,0,0,1-1.15-2.11,1.87,1.87,0,0,1,2-1.69c.26,0,.53,0,.8,0,.85,0,1.16-.28,1.14-1.14,0-2.08-.11-4.16-.16-6.24a.49.49,0,0,1,0-.12c-.07-.82-.46-1.07-1.21-.71A25.63,25.63,0,0,1,107.22,42a44.1,44.1,0,0,1-7.39,1.36l-.54.08c-1.27.24-1.49.51-1.52,1.81A18.69,18.69,0,0,1,94.55,55.6a4.63,4.63,0,0,0-.24.43c-.23.43,0,.62.39.66.22,0,.45,0,.67,0,5,0,10,0,15-.11,1.67,0,1.87.23,1.42,1.82a13,13,0,0,0-.67,2.88c0,.28-.1.62.23.77s.58-.1.8-.32a27.66,27.66,0,0,1,4.57-3.85,19.57,19.57,0,0,1,8.71-2.67,19.34,19.34,0,0,1,7.23.38,10.13,10.13,0,0,1,7.85,6.93c.28.71.65.81,1.19.28a36.57,36.57,0,0,1,5.74-4.57,21.31,21.31,0,0,1,10.66-3.3,23.93,23.93,0,0,1,7.64.68A12.1,12.1,0,0,1,174,62.9a10.8,10.8,0,0,1,.57,3.83,32.67,32.67,0,0,1-1.14,8.85c-1,4.14-2,8.28-3,12.42q-1.74,7.26-3.51,14.51c-.42,1.76-.85,3.52-1.25,5.28-.11.47-.26.68-.81.68-6.09,0-12.19,0-18.29,0-.75,0-.74,0-.57-.7,1.64-6.69,3.3-13.38,4.92-20.07.85-3.54,1.65-7.09,2.43-10.65a5.08,5.08,0,0,0,0-2.68A3.19,3.19,0,0,0,150.16,72c-4.07-.29-6.87,1.44-8.79,5.38a38.13,38.13,0,0,0-2.53,7.65c-1.25,5.12-2.53,10.22-3.8,15.33-.67,2.7-1.36,5.39-2,8.09-.1.4-.25.52-.65.52q-9.39,0-18.79,0c-.53,0-.56-.18-.45-.61,1.08-4.2,2.17-8.4,3.22-12.61s2.13-8.63,3.19-12.94c.51-2.08,1-4.15,1.37-6.27A3.82,3.82,0,0,0,117.41,72a7.65,7.65,0,0,0-7.85,4.55,86.34,86.34,0,0,0-4.5,12.86c-1.45,5.08-2.66,10.23-3.81,15.39-.22,1-.46,2-.62,3-.07.48-.29.57-.73.57C96.81,108.35,93.72,108.36,90.63,108.36Z"/><path class="cls-2" d="M197.28,133.13v12.24c0,.82-.17,1-1,1-1,0-2.06,0-3.09,0a.81.81,0,0,1-.88-.76,7.67,7.67,0,0,1-.1-1.35q0-10.09,0-20.2a10.36,10.36,0,0,0-.08-1.11c0-.14,0-.31-.22-.32s-.23.16-.27.29c-.26.82-.51,1.65-.78,2.47-2,5.91-4.2,11.73-6.34,17.58-.31.87-.64,1.74-.94,2.61a1,1,0,0,1-1,.73c-1.11,0-2.22,0-3.34,0a1.18,1.18,0,0,1-1.15-.94c-.71-2.06-1.43-4.12-2.12-6.19-1.77-5.24-3.47-10.5-5.32-15.72-.13-.34-.22-.86-.63-.79s-.29.61-.29,1q0,10.53.08,21.07c0,1.62-.1,1.74-1.75,1.75-.8,0-1.6,0-2.41,0a.75.75,0,0,1-.84-.71,4.53,4.53,0,0,1-.07-.74c-.06-7.91-.15-15.82-.06-23.72a6.11,6.11,0,0,1,.08-1,1.9,1.9,0,0,1,1.77-1.7c1.77,0,3.54,0,5.31,0a2.33,2.33,0,0,1,2.19,1.63c.56,1.39,1.13,2.78,1.65,4.19,1.61,4.32,3.2,8.64,4.8,13a1.47,1.47,0,0,0,.1.22c.12.21.18.53.46.54s.37-.34.47-.58q3.26-8.18,6.23-16.44c.07-.2.17-.38.24-.57a3,3,0,0,1,3.29-2.12c1.41.08,2.83,0,4.25.13a1.61,1.61,0,0,1,1.56,1.18,4.19,4.19,0,0,1,.16,1.41v11.92Z"/><path class="cls-2" d="M32.52,132.8c0,3.52,0,7,0,10.57a17.27,17.27,0,0,1,.05,2.16c-.07.51-.31.78-.83.79l-3.15.07a.87.87,0,0,1-1-.92c0-.62-.09-1.24-.09-1.85q0-9.7,0-19.41c0-.37,0-.74,0-1.11,0-.18,0-.47-.26-.48s-.25.25-.31.43c-.27.86-.51,1.73-.8,2.59-1.92,5.65-4,11.23-6.08,16.82-.36,1-.73,2-1.06,3a1.15,1.15,0,0,1-1.23.89c-1,0-1.9,0-2.84,0s-1.19-.19-1.47-1c-1.4-4.08-2.77-8.18-4.16-12.27q-1.63-4.84-3.31-9.69a1.92,1.92,0,0,0-.17-.39c-.1-.16-.23-.31-.45-.27s-.22.26-.23.45,0,.41,0,.61l.06,21.13V145c0,1.34-.12,1.48-1.47,1.49-.87,0-1.73,0-2.6,0a.8.8,0,0,1-.94-.81c0-.33-.08-.66-.08-1Q0,132.83,0,121a2.24,2.24,0,0,1,1.54-2.41,2.91,2.91,0,0,1,1-.09c1.26,0,2.52,0,3.77,0,1.85,0,2.59.41,3.25,2.13,1.14,2.93,2.24,5.88,3.35,8.83,1,2.6,1.92,5.2,2.89,7.8.12.32.19.79.57.82s.45-.48.56-.78q3.17-7.87,6-15.86a10.28,10.28,0,0,1,.86-1.84,2.24,2.24,0,0,1,2-1.16c1.65,0,3.3,0,4.94.06A1.59,1.59,0,0,1,32.43,120a12.08,12.08,0,0,1,.07,1.35q0,5.72,0,11.43Z"/><path class="cls-2" d="M86.81,138.56a1.86,1.86,0,0,0,.13-1l-.15-17.42c0-1.37.25-1.64,1.6-1.65.74,0,1.49,0,2.23,0s1,.31,1,1c0,.15,0,.29,0,.43,0,8.28,0,16.56-.13,24.84,0,1.11-.47,1.55-1.57,1.6s-2.18,0-3.27,0a3,3,0,0,1-2.53-1.81c-1.21-2.22-2.45-4.43-3.61-6.68-2.21-4.25-4.42-8.5-6.5-12.83-.07-.16-.14-.43-.33-.39s-.15.34-.15.52q0,9.8,0,19.59c0,1.66,0,1.68-1.69,1.68H70.09c-1,0-1.1-.15-1.16-1.12,0-.68,0-1.36,0-2L69,121a8.19,8.19,0,0,1,0-1,1.54,1.54,0,0,1,1.34-1.48,18,18,0,0,1,4.86.1A2.26,2.26,0,0,1,77,120c2.85,5.91,6.19,11.57,9.11,17.45A3,3,0,0,0,86.81,138.56Z"/><path class="cls-2" d="M158.43,132.47v12.47c0,.21,0,.42,0,.62,0,.52-.2.78-.78.76-1.2,0-2.39,0-3.59,0-.86,0-1-.11-1.07-1a8.19,8.19,0,0,1,0-1l.09-24.58c0-.19,0-.37,0-.56,0-.53.27-.77.82-.76,1.17,0,2.34,0,3.52,0,.81,0,1,.21,1,1v13Z"/><path class="cls-2" d="M63,125.58a9.77,9.77,0,0,0-7.21-7,18.31,18.31,0,0,0-7-.44,11.57,11.57,0,0,0-9.46,6.26c-1.5,2.79-1.74,5.84-1.9,8.75a18,18,0,0,0,1.37,7.26,10.17,10.17,0,0,0,7.19,6,18.4,18.4,0,0,0,7.17.29c4.18-.68,7.42-2.75,9.14-6.69A21,21,0,0,0,63,125.58Zm-4.86,8.48a15.35,15.35,0,0,1-.88,4,6.79,6.79,0,0,1-5.63,4.33,7.84,7.84,0,0,1-3.76-.29,6.28,6.28,0,0,1-4-4.38,16,16,0,0,1-.65-5.33,14,14,0,0,1,.87-5.6A6.44,6.44,0,0,1,50,122.43a7.77,7.77,0,0,1,5.56,1.4,6.57,6.57,0,0,1,2.33,3.75A16.83,16.83,0,0,1,58.18,134.06Z"/><path class="cls-2" d="M122.36,126.43c-1-3.94-3.4-6.66-7.41-7.76a18.18,18.18,0,0,0-8.55-.21,11.18,11.18,0,0,0-7.22,4.78,14.72,14.72,0,0,0-2.34,6.69,19.71,19.71,0,0,0,.94,10.15,10.08,10.08,0,0,0,6.66,6.22,17.62,17.62,0,0,0,7.71.48,11.49,11.49,0,0,0,9.54-7.34,24.15,24.15,0,0,0,.67-13ZM116.78,137a7,7,0,0,1-7,5.53c-4.2.13-6.22-2.39-7-5.49-.11-.46-.2-.93-.27-1.39a21.25,21.25,0,0,1-.2-3.55,15.36,15.36,0,0,1,.72-4.77c1.24-3.69,4-5.07,7.46-4.87,4.26.24,6.28,2.86,6.8,6.82A20.5,20.5,0,0,1,116.78,137Z"/><path class="cls-2" d="M148.5,145.26c-1.09-2.51-2.16-5-3.31-7.51a7.79,7.79,0,0,0-3.09-3.91.46.46,0,0,1-.3-.43c0-.23.25-.24.41-.31a7.19,7.19,0,0,0,4.83-6.69,6.67,6.67,0,0,0-3.68-6.73,10,10,0,0,0-4.5-1.15c-3-.08-6-.06-9-.07a4.68,4.68,0,0,0-.74.05,1,1,0,0,0-1,.88,7.3,7.3,0,0,0-.08.92v12.3h0v11.86a11.42,11.42,0,0,0,0,1.17.63.63,0,0,0,.67.66h3.89a.6.6,0,0,0,.66-.65c0-.44,0-.87,0-1.3,0-2.92,0-5.85-.06-8.77,0-.6.23-.84.78-.84s1.19,0,1.79,0a3.32,3.32,0,0,1,2.51,1.34,17.25,17.25,0,0,1,2.45,4.13c.75,1.72,1.27,3.52,1.95,5.26a1.15,1.15,0,0,0,1.25.86c1.27,0,2.55,0,3.83,0C148.76,146.3,148.88,146.14,148.5,145.26Zm-10.21-14.49a19.25,19.25,0,0,1-4.42.25c-.47,0-.51-.34-.51-.68,0-1.26,0-2.51,0-3.76h0c0-1.22,0-2.43,0-3.64,0-.4.14-.56.53-.56,1.36,0,2.72,0,4.07,0,2.13.12,3.4,1.58,3.57,4A4,4,0,0,1,138.29,130.77Z"/><path class="cls-2" d="M222.18,115.64a8.72,8.72,0,1,0,8.86,8.7A8.77,8.77,0,0,0,222.18,115.64Zm2.35,15.25a5.31,5.31,0,0,1-2.34.48,7,7,0,0,1-.39-13.92,6.74,6.74,0,0,1,6.25,4A7.08,7.08,0,0,1,224.53,130.89Z"/><path class="cls-2" d="M223.76,124.54l.45-.2a2.17,2.17,0,0,0,1.45-2.09,2.09,2.09,0,0,0-1.57-1.93,3.65,3.65,0,0,0-1.26-.23l-3,0c-.93,0-1,0-1,.91,0,2.08,0,4.16,0,6.24,0,1.38-.19,1.25,1.31,1.27.48,0,.6-.21.59-.64,0-.8,0-1.61,0-2.41,0-.36.1-.5.49-.51a1.78,1.78,0,0,1,1.52.65,7,7,0,0,1,1,1.65c.63,1.44.22,1.24,2,1.25h.12c.41,0,.54-.13.31-.51C225.41,126.79,225,125.41,223.76,124.54Zm-.84-.92a4.48,4.48,0,0,1-1.89.19c-.26,0-.29-.17-.29-.37v-.93c0-1.32,0-1.32,1.31-1.29a2.93,2.93,0,0,1,.67.07,1.24,1.24,0,0,1,.2,2.33Z"/></svg>