<svg id="Capa_1" data-name="Capa 1" xmlns="http://www.w3.org/2000/svg" viewBox="0 0 148 148"><defs><style>.cls-1{fill:#3b3b3b;}.cls-2{fill:#fff;}</style></defs><path class="cls-1" d="M122.56,0H124a18,18,0,0,0,3.58.31,17.22,17.22,0,0,1,9.2,3.49,29.55,29.55,0,0,1,8.79,9.61,20.15,20.15,0,0,1,2.28,9.32c0,.42-.14.87.14,1.26V124a18,18,0,0,0-.31,3.58,17.22,17.22,0,0,1-3.49,9.2,29.55,29.55,0,0,1-9.61,8.79,20.15,20.15,0,0,1-9.32,2.28c-.42,0-.87-.14-1.26.14H24a18,18,0,0,0-3.58-.31,17.22,17.22,0,0,1-9.2-3.49,29.55,29.55,0,0,1-8.79-9.61,20.15,20.15,0,0,1-2.28-9.32c0-.42.14-.87-.14-1.26v-1.16a2.52,2.52,0,0,0,.14-1.41q0-47.44,0-94.88A2.52,2.52,0,0,0,0,25.15V24a18,18,0,0,0,.31-3.58,17.22,17.22,0,0,1,3.49-9.2,29.55,29.55,0,0,1,9.61-8.79A20.15,20.15,0,0,1,22.73.14C23.15.12,23.6.28,24,0h1.45a2.52,2.52,0,0,0,1.41.14h94.3A2.52,2.52,0,0,0,122.56,0Z"/><path class="cls-2" d="M67.46,54.62H84.79a18.8,18.8,0,0,1,4.3.44c7,1.64,10.67,7.34,9.34,14.74-.88,4.94-2.73,9.62-4.19,14.4q-4,13.11-8.16,26.18c-2.57,8.14-10.64,12.39-18.5,9.8-6.43-2.11-9.27-7.52-7.32-14,1.32-4.38,2.71-8.74,4.06-13.1a17.78,17.78,0,0,0,.86-3.94A5.73,5.73,0,0,0,60.47,83c-2.48-.49-5-.14-7.49-.25a3.19,3.19,0,0,1-3.11-2.34,3.24,3.24,0,0,1,1.28-3.56,3.41,3.41,0,0,1,2.05-.57l19.22,0a7.12,7.12,0,0,1,2.28.33c2.22.73,3.13,2.33,2.49,4.59a13.84,13.84,0,0,1-1,2.39q-4.77,9.48-9.56,19A15.08,15.08,0,0,0,65.3,106c-.58,2.68-.34,5.19,2,6.9a7.09,7.09,0,0,0,8.15.47,10.89,10.89,0,0,0,4.89-6.56Q83.57,96.7,86.7,86.56,89,79.33,91.22,72.1a20.55,20.55,0,0,0,.87-3.94c.42-3.71-1.54-6.3-5.22-6.84a22.89,22.89,0,0,0-3.31-.19H50.33c-.48,0-1,0-1.44,0-2.31,0-3.78-1.35-3.76-3.3s1.5-3.2,3.83-3.2Z"/><path class="cls-2" d="M94.31,29.47a11,11,0,1,1-11,10.89A10.94,10.94,0,0,1,94.31,29.47Z"/><path class="cls-2" d="M59.79,72H40c-2.12,0-3.48-1.14-3.65-2.93a3.17,3.17,0,0,1,2.54-3.51,6.94,6.94,0,0,1,1.44-.11h39c2.24,0,3.61,1,3.91,2.66.4,2.21-1.15,3.89-3.66,3.9Z"/></svg>