<svg id="Capa_1" data-name="Capa 1" xmlns="http://www.w3.org/2000/svg" viewBox="0 0 365.3 146.88"><defs><style>.cls-1{fill:#3a3a3a;}.cls-2{fill:#fefefe;}</style></defs><path class="cls-1" d="M0,146.78q0-73,0-146C0,.15.15,0,.81,0Q183,0,365.2,0a1.55,1.55,0,0,1,.08.85q0,72.51,0,145c0,1.08.14,1-1,1H.88A1.57,1.57,0,0,1,0,146.78Z"/><path class="cls-2" d="M84.85,43.33c11.63,0,23.26,0,34.9,0A4.44,4.44,0,0,0,124,41.18a4.32,4.32,0,0,0-.28-4.71c-1.06-1.75-2.07-3.53-3.07-5.31a9.33,9.33,0,1,1,16.15-9.34q7.81,13.44,15.54,26.94a9.27,9.27,0,0,1-8.11,13.88c-.85,0-1.7,0-2.54,0A5.86,5.86,0,0,0,136,65.89c-1.83,3.15-3.66,6.32-5.48,9.48Q118.28,96.48,106,117.59a24.58,24.58,0,0,1-42.44-.07Q48.68,91.75,33.75,66A6,6,0,0,0,28,62.62a16.41,16.41,0,0,1-4.79-.25,9.33,9.33,0,0,1-5.7-13.78c3.23-5.65,6.51-11.28,9.77-16.92C29.14,28.36,31,25,33,21.74a9.31,9.31,0,0,1,17.08,2.49,9,9,0,0,1-.93,6.85C48.07,33,47,34.83,45.9,36.7,44,40,46,43.33,49.77,43.33Z"/><path class="cls-2" d="M239.61,84c0,5.29,0,10.58,0,15.87a7.33,7.33,0,0,1-14.47,1.71,10.52,10.52,0,0,1-.23-2.44V69.27A15.36,15.36,0,0,0,198.8,58.41a15.19,15.19,0,0,0-4.65,11.25q0,14.94,0,29.89a7.35,7.35,0,1,1-14.69.3q0-11.26,0-22.53c0-3.5-.21-7,.14-10.51a29.19,29.19,0,0,1,14.27-23A30.07,30.07,0,0,1,239,63.55a29.25,29.25,0,0,1,.57,5.83Z"/><path class="cls-2" d="M289.05,62.91c0-5.58,0-11.16,0-16.73a7.29,7.29,0,0,1,14.57-.13c0,7.07-.13,14.13-.13,21.2,0,4.09-.36,8.19.15,12.26a15.38,15.38,0,0,0,15,13.09A15.56,15.56,0,0,0,334,80.2a25.6,25.6,0,0,0,.32-4.36c0-5,0-10,.07-15.08q0-7,.15-14.11a7.27,7.27,0,0,1,7.23-7.09,7.16,7.16,0,0,1,7.38,7C349.13,54,349,61.51,349,69c0,3.15,0,6.31-.09,9.46a30.07,30.07,0,0,1-59.55,4.49,37.23,37.23,0,0,1-.54-8.37c.09-3.89,0-7.77,0-11.66Z"/><path class="cls-2" d="M256.9,73.08q0-13.23,0-26.47A7.23,7.23,0,0,1,263,39.46a7.32,7.32,0,0,1,8.24,5.22,7.41,7.41,0,0,1,.28,2q0,26.43,0,52.86a7.32,7.32,0,0,1-14.63,0Q256.89,86.32,256.9,73.08Z"/><path class="cls-1" d="M84.89,62.64h20.69a5.6,5.6,0,0,1,5.81,6.12,5.85,5.85,0,0,1-.83,2.47q-10.5,18.17-21,36.33a5.33,5.33,0,0,1-9.45,0q-10.53-18.19-21-36.41A5.56,5.56,0,0,1,64,62.65C71,62.62,77.94,62.64,84.89,62.64Z"/></svg>