<svg id="Capa_1" data-name="Capa 1" xmlns="http://www.w3.org/2000/svg" viewBox="0 0 147 147"><defs><style>.cls-1{fill:#5f5f5f;}.cls-2{fill:#fff;}</style></defs><rect class="cls-1" width="147" height="147" rx="73.5"/><path class="cls-2" d="M29.55,73.51V47.14c0-1.63.1-1.73,1.71-1.73,12.19,0,24.38,0,36.57,0A54.87,54.87,0,0,1,81,46.85c5.73,1.42,9.14,5,10.51,10.7a46.7,46.7,0,0,1,1.26,9.91c.26,10.87.08,21.74.12,32.62,0,1.25-.24,1.5-1.51,1.5-3.58,0-7.17,0-10.75,0-1.26,0-1.47-.23-1.47-1.53q0-13.59,0-27.19a41.28,41.28,0,0,0-.69-8.59,7.82,7.82,0,0,0-6.67-6.56,34.48,34.48,0,0,0-6.57-.61c-6.74,0-13.47,0-20.21,0-1.61,0-1.76.16-1.76,1.82V99.7c0,1.77-.12,1.88-1.87,1.88q-5,0-10,0c-1.75,0-1.85-.1-1.85-1.89Z"/><path class="cls-2" d="M117.45,73.54V99.9c0,1.5-.18,1.68-1.69,1.68q-5.24,0-10.47,0c-1.37,0-1.6-.23-1.6-1.61V47c0-1.33.23-1.56,1.53-1.56q5.37,0,10.74,0c1.29,0,1.49.2,1.49,1.49Z"/><path class="cls-2" d="M68.4,84.39V100c0,1.38-.2,1.58-1.6,1.58-3.71,0-7.41,0-11.12,0-1.41,0-1.62-.22-1.62-1.67V68.68c0-1.42.18-1.6,1.58-1.6q5.59,0,11.21,0c1.42,0,1.55.14,1.55,1.6Z"/></svg>